# Exported from Godot Engine
mtllib cube.mtl
o cube
v -1.0 1.0 -1.0
vt 0.0 0.33333302
vn 0.0 1.0 -1.5259022e-05
v 1.0 1.0 -1.0
vt 0.333333 0.33333302
vn 0.0 1.0 -1.5259022e-05
v -1.0 1.0 1.0
vt 0.0 0.0
vn 0.0 1.0 -1.5259022e-05
v 1.0 1.0 1.0
vt 0.333333 0.0
vn 0.0 1.0 -1.5259022e-05
v 1.0 1.0 1.0
vt 0.666667 0.33333302
vn -1.5259255e-05 -1.5259255e-05 1.0
v 1.0 -1.0 1.0
vt 0.333333 0.33333302
vn -1.5259255e-05 -1.5259255e-05 1.0
v -1.0 1.0 1.0
vt 0.666667 0.666667
vn -1.5259255e-05 -1.5259255e-05 1.0
v -1.0 -1.0 1.0
vt 0.333333 0.666667
vn -1.5259255e-05 -1.5259255e-05 1.0
v -1.0 1.0 1.0
vt 0.666667 0.33333302
vn -1.0 0.0 -1.5259022e-05
v -1.0 -1.0 1.0
vt 0.666667 0.666667
vn -1.0 0.0 -1.5259022e-05
v -1.0 1.0 -1.0
vt 1.0 0.33333302
vn -1.0 0.0 -1.5259022e-05
v -1.0 -1.0 -1.0
vt 1.0 0.666667
vn -1.0 0.0 -1.5259022e-05
v 1.0 -1.0 -1.0
vt 0.666667 0.666667
vn 0.0 -1.0 -1.5259022e-05
v -1.0 -1.0 -1.0
vt 0.666667 1.0
vn 0.0 -1.0 -1.5259022e-05
v 1.0 -1.0 1.0
vt 1.0 0.666667
vn 0.0 -1.0 -1.5259022e-05
v -1.0 -1.0 1.0
vt 1.0 1.0
vn 0.0 -1.0 -1.5259022e-05
v 1.0 1.0 -1.0
vt 0.666667 0.0
vn 1.0 0.0 -1.5259022e-05
v 1.0 -1.0 -1.0
vt 0.666667 0.33333302
vn 1.0 0.0 -1.5259022e-05
v 1.0 1.0 1.0
vt 1.0 0.0
vn 1.0 0.0 -1.5259022e-05
v 1.0 -1.0 1.0
vt 1.0 0.33333302
vn 1.0 0.0 -1.5259022e-05
v -1.0 1.0 -1.0
vt 0.333333 0.0
vn 0.0 0.0 -1.0
v -1.0 -1.0 -1.0
vt 0.333333 0.33333302
vn 0.0 0.0 -1.0
v 1.0 1.0 -1.0
vt 0.666667 0.0
vn 0.0 0.0 -1.0
v 1.0 -1.0 -1.0
vt 0.666667 0.33333302
vn 0.0 0.0 -1.0
usemtl Material
f 3/3/3 2/2/2 1/1/1
f 4/4/4 2/2/2 3/3/3
f 7/7/7 6/6/6 5/5/5
f 8/8/8 6/6/6 7/7/7
f 11/11/11 10/10/10 9/9/9
f 12/12/12 10/10/10 11/11/11
f 15/15/15 14/14/14 13/13/13
f 16/16/16 14/14/14 15/15/15
f 19/19/19 18/18/18 17/17/17
f 20/20/20 18/18/18 19/19/19
f 23/23/23 22/22/22 21/21/21
f 24/24/24 22/22/22 23/23/23
